<svg xmlns="http://www.w3.org/2000/svg" width="192" height="192" fill="none" viewBox="0 0 192 192">
  <path fill="#000" d="M91.249 65.941c1.646-4.266 7.683-4.266 9.329 0l10.926 28.313a5 5 0 0 1 0 3.6l-10.926 28.312c-1.646 4.267-7.683 4.267-9.33 0L80.324 97.854a5 5 0 0 1 0-3.6L91.249 65.94ZM77.532 98.917a5 5 0 0 0 0-5.834L28.968 25.475c-2.834-3.945-9.061-1.94-9.061 2.917v135.216c0 4.857 6.227 6.862 9.06 2.917l48.566-67.608Zm36.935 0a5 5 0 0 1 0-5.834l48.565-67.608c2.834-3.945 9.061-1.94 9.061 2.917v135.216c0 4.857-6.227 6.862-9.061 2.917l-48.565-67.608Z"/>
</svg>
