<svg xmlns="http://www.w3.org/2000/svg" width="256" height="256" fill="none" viewBox="0 0 256 256">
  <rect width="256" height="256" fill="#fff" rx="16"/>
  <path fill="#000" d="M123.249 97.941c1.646-4.266 7.683-4.266 9.329 0l10.926 28.313a5 5 0 0 1 0 3.6l-10.926 28.312c-1.646 4.267-7.683 4.267-9.329 0l-10.926-28.312a5 5 0 0 1 0-3.6l10.926-28.313Zm-13.716 32.976a5 5 0 0 0 0-5.834L60.968 57.475c-2.834-3.945-9.061-1.94-9.061 2.917v135.216c0 4.857 6.227 6.862 9.06 2.917l48.566-67.608Zm36.934 0a5 5 0 0 1 0-5.834l48.565-67.608c2.834-3.945 9.061-1.94 9.061 2.917v135.216c0 4.857-6.227 6.862-9.061 2.917l-48.565-67.608Z"/>
</svg>
